<?xml version="1.0" encoding="UTF-8" standalone="no"?>
<svg id="Kazakhstan_svg" xmlns:rdf="http://www.w3.org/1999/02/22-rdf-syntax-ns#" xmlns="http://www.w3.org/2000/svg" viewBox="0 0 1500 1000" version="1.0" xmlns:cc="http://creativecommons.org/ns#" xmlns:dc="http://purl.org/dc/elements/1.1/">
<metadata id="metadata62">
<rdf:RDF>
<cc:Work rdf:about="">
<dc:format>image/svg+xml</dc:format>
<dc:type rdf:resource="http://purl.org/dc/dcmitype/StillImage"/>
</cc:Work>
</rdf:RDF>
</metadata>
<rect id="rect4293" height="1e3" width="1500" y="0" x="0" fill="#00afca"/>
<path id="use3178" fill="#fec50c" d="m117.98 292.14c0 20.27 18.2 30.68 32.5 30.68 19.26 0 29.52-11.52 29.52-26.59 0-8.55-1.57-13.92-5.51-22.1 0 0-31.78-66.09-44.15-91.65-1.54-3.19-2.04-6.82-2.04-12.14 0-8.22 7.97-14.93 16.33-15.14 7.61-0.19 15.91 7.1 15.91 15.41 0 10.1-5.23 14.6-10.61 14.6-6.61 0-9.25-2.72-9.25-7.37 0-3.23 1.56-4.63 3.81-4.63 5.67 0 4.08 7.63 4.08 7.63 2.82-0.61 5.14-3.49 3.81-7.09 2.06-0.46 3.99-1.54 5.51-3.27-1.52-1.48-3.26-2.62-5.51-3 1.33-4.39-0.45-6.53-4.28-7.44 0.77 1.69 0.8 3.24 0.54 4.71-6.04-1.72-15.31 1.02-15.31 11.46 0 10.36 7.2 19.09 20.68 16.91-3.21 1.53-4.84 4.67-5.17 8.18 2.45-0.95 5.17-1.09 5.17-1.09-1.57 2.78-3.76 5.18-3.67 10.64 2.5-1.14 4.82-3.24 8.03-1.91-5.03 9.9 1.15 23.51 16.87 26.73-5.76-6.74-8.57-14.03-8.57-21.28 0-23.49 6.53-27.44 6.53-43.78 0-6.83-3.52-14.21-10.48-19.23v0.28c4.6-1.23 7.55-3.5 9.25-6.58-10.52-2.98-25.8-2.93-34.01 0.3-9.43 1.09-16.02 8.33-17.96 12-1.94 3.68-5.71 16.96 0 28.92 6.25 13.09 35.71 75.56 44.9 95.2 1.95 4.16 3.13 8.58 3.13 13.36 0 12.03-11.02 16.23-17.28 16.23-7.48 0-15.1-5.7-15.1-12.82 0-4.51 2.45-7.23 5.98-7.23 8.46 0 7.95 7.2 6.26 11.73 5.27-2.36 8.33-6.59 7.48-11.04 2.98-0.41 5.82-1.83 8.44-4.78-2.06-2.6-4.57-4.57-8.44-4.64 1.69-6.91-2.94-9.83-7.48-11.45 1.44 5.07 2.38 10.91-6.26 10.91-6.3 0-11.26 1.09-14.15 5.18-0.17-5.45-0.68-27-0.68-27-0.36-8.1 10.84-7.87 17.96-5.46-2.69-9.33-8.2-14.37-20.95-13.09 3.09-1.3 6.39-4.21 6.39-9.82 0-7.6-6.16-16.01-10.2-18.5l-2.02 79.06z"/>
<g id="g3730" fill="#fec50c" transform="translate(-242.21)">
<path id="use3938" d="m1110.3 270.11c7.8 1.46 11.8-2.86 12.9-8.74 1.6-7.84-1.8-47.33-1.8-47.33s-18.2 35.2-19.7 43.04c-1.2 5.88 0.7 11.47 8.6 13.03z"/>
<path id="use3940" d="m1139 278.81c7.4 2.96 12.1-0.51 14.4-6.05 3-7.38 7.4-46.77 7.4-46.77s-24.7 30.97-27.8 38.36c-2.3 5.54-1.4 11.4 6 14.46z"/>
<path id="use3942" d="m1165.4 292.93c6.7 4.36 12 1.87 15.3-3.12 4.4-6.65 16.4-44.42 16.4-44.42s-30.3 25.56-34.7 32.21c-3.3 4.98-3.7 10.89 3 15.33z"/>
<path id="use3944" d="m1188.5 311.93c5.8 5.59 11.4 4.17 15.7-0.07 5.6-5.65 24.8-40.35 24.8-40.35s-34.7 19.15-40.4 24.81c-4.2 4.24-5.7 9.96-0.1 15.61z"/>
<path id="use3946" d="m1207.5 335.09c4.6 6.6 10.4 6.31 15.4 2.98 6.6-4.44 32.2-34.74 32.2-34.74s-37.8 12.02-44.4 16.46c-5 3.33-7.6 8.66-3.2 15.3z"/>
<path id="use3948" d="m1221.7 361.52c3.1 7.34 8.9 8.2 14.4 5.91 7.4-3.06 38.4-27.79 38.4-27.79s-39.4 4.41-46.8 7.47c-5.5 2.3-9.1 7.02-6 14.41z"/>
<path id="use3950" d="m1230.4 390.18c1.6 7.83 7.1 9.79 13 8.62 7.8-1.56 43-19.77 43-19.77s-39.5-3.35-47.3-1.79c-5.9 1.17-10.3 5.1-8.7 12.94z"/>
<path id="use3952" d="m1233.3 420c0.1 8 5.1 10.99 11.1 10.99 8 0 46.1-10.99 46.1-10.99s-38.1-10.99-46.1-10.99c-6 0-11.1 2.99-11.1 10.99z"/>
<path id="use3954" d="m1230.4 449.82c-1.5 7.86 2.8 11.77 8.7 12.94 7.8 1.56 47.3-1.79 47.3-1.79s-35.2-18.21-43-19.77c-5.9-1.17-11.5 0.77-13 8.62z"/>
<path id="use3956" d="m1221.7 478.48c-3 7.43 0.5 12.11 6 14.41 7.4 3.06 46.8 7.47 46.8 7.47s-31-24.73-38.4-27.79c-5.5-2.29-11.4-1.47-14.4 5.91z"/>
<path id="use3958" d="m1207.5 504.91c-4.3 6.7-1.8 11.97 3.2 15.3 6.6 4.44 44.4 16.46 44.4 16.46s-25.6-30.3-32.2-34.74c-5-3.33-10.9-3.67-15.4 2.98z"/>
<path id="use3960" d="m1188.5 528.07c-5.5 5.72-4.1 11.37 0.1 15.61 5.7 5.66 40.4 24.81 40.4 24.81s-19.2-34.7-24.8-40.35c-4.3-4.24-10-5.73-15.7-0.07z"/>
<path id="use3962" d="m1165.4 547.07c-6.6 4.53-6.3 10.35-3 15.33 4.4 6.65 34.7 32.21 34.7 32.21s-12-37.77-16.4-44.42c-3.3-4.99-8.7-7.56-15.3-3.12z"/>
<path id="use3964" d="m1139 561.19c-7.4 3.16-8.3 8.92-6 14.46 3.1 7.39 27.8 38.36 27.8 38.36s-4.4-39.39-7.4-46.77c-2.3-5.54-7.1-9.11-14.4-6.05z"/>
<path id="use3974" d="m995.57 547.07c-6.71-4.36-11.98-1.87-15.31 3.12-4.44 6.65-16.46 44.42-16.46 44.42s30.3-25.56 34.74-32.21c3.36-4.98 3.66-10.89-2.97-15.33z"/>
<path id="use3976" d="m972.41 528.07c-5.73-5.59-11.38-4.17-15.62 0.07-5.66 5.65-24.81 40.35-24.81 40.35s34.7-19.15 40.36-24.81c4.24-4.24 5.72-9.96 0.07-15.61z"/>
<path id="use3978" d="m953.4 504.91c-4.53-6.6-10.35-6.31-15.33-2.98-6.65 4.44-32.21 34.74-32.21 34.74s37.78-12.02 44.42-16.46c4.99-3.33 7.56-8.66 3.12-15.3z"/>
<path id="use3980" d="m939.28 478.48c-3.15-7.34-8.92-8.2-14.46-5.91-7.39 3.06-38.36 27.79-38.36 27.79s39.39-4.41 46.78-7.47c5.54-2.3 9.1-7.02 6.04-14.41z"/>
<path id="use3982" d="m930.58 449.82c-1.66-7.83-7.14-9.79-13.03-8.62-7.84 1.56-43.04 19.77-43.04 19.77s39.49 3.35 47.33 1.79c5.89-1.17 10.3-5.1 8.74-12.94z"/>
<path id="use3984" d="m927.64 420c-0.1-8-5.09-10.99-11.09-10.99-8 0-46.08 10.99-46.08 10.99s38.08 10.99 46.08 10.99c6 0 11.09-2.99 11.09-10.99z"/>
<path id="use3986" d="m930.58 390.18c1.46-7.86-2.85-11.77-8.74-12.94-7.84-1.56-47.33 1.79-47.33 1.79s35.2 18.21 43.04 19.77c5.89 1.17 11.47-0.77 13.03-8.62z"/>
<path id="use3988" d="m939.28 361.52c2.97-7.43-0.5-12.11-6.04-14.41-7.39-3.06-46.78-7.47-46.78-7.47s30.97 24.73 38.36 27.79c5.54 2.29 11.4 1.47 14.46-5.91z"/>
<path id="use3990" d="m953.4 335.09c4.36-6.7 1.87-11.97-3.12-15.3-6.64-4.44-44.42-16.46-44.42-16.46s25.56 30.3 32.21 34.74c4.98 3.33 10.89 3.67 15.33-2.98z"/>
<path id="use3992" d="m972.41 311.93c5.58-5.72 4.17-11.37-0.07-15.61-5.66-5.66-40.36-24.81-40.36-24.81s19.15 34.7 24.81 40.35c4.24 4.24 9.96 5.73 15.62 0.07z"/>
<circle id="circle3934" d="M 68.699997,0 C 68.699997,37.941961 37.941961,68.699997 0,68.699997 C -37.941961,68.699997 -68.699997,37.941961 -68.699997,0 C -68.699997,-37.941961 -37.941961,-68.699997 0,-68.699997 C 37.941961,-68.699997 68.699997,-37.941961 68.699997,0 z" transform="matrix(1.9585 0 0 1.9585 1080.3 420.17)" cy="0" cx="0" r="68.7"/>
<path id="use3936" d="m1080.5 267.17c8-0.1 11-5.09 11-11.09 0-8-11-46.08-11-46.08s-11 38.08-11 46.08c0 6 3 11.09 11 11.09z"/>
<path id="use3966" d="m1110.3 569.89c-7.8 1.66-9.8 7.15-8.6 13.03 1.5 7.84 19.7 43.04 19.7 43.04s3.4-39.49 1.8-47.33c-1.1-5.88-5.1-10.3-12.9-8.74z"/>
<path id="use3968" d="m1080.5 572.83c-8 0.1-11 5.09-11 11.09 0 8 11 46.08 11 46.08s11-38.08 11-46.08c0-6-3-11.09-11-11.09z"/>
<path id="use3970" d="m1050.7 569.89c-7.9-1.46-11.8 2.86-13 8.74-1.6 7.84 1.8 47.33 1.8 47.33s18.2-35.2 19.8-43.04c1.1-5.88-0.8-11.47-8.6-13.03z"/>
<path id="use3972" d="m1022 561.19c-7.4-2.96-12.1 0.51-14.4 6.05-3.1 7.38-7.5 46.77-7.5 46.77s24.7-30.97 27.8-38.36c2.3-5.54 1.5-11.4-5.9-14.46z"/>
<path id="use3994" d="m995.57 292.93c6.63-4.53 6.33-10.35 2.97-15.33-4.44-6.65-34.74-32.21-34.74-32.21s12.02 37.77 16.46 44.42c3.33 4.99 8.66 7.56 15.31 3.12z"/>
<path id="use3996" d="m1022 278.81c7.3-3.16 8.2-8.92 5.9-14.46-3.1-7.39-27.8-38.36-27.8-38.36s4.4 39.39 7.5 46.77c2.3 5.54 7 9.11 14.4 6.05z"/>
<path id="use3998" d="m1050.7 270.11c7.8-1.66 9.7-7.15 8.6-13.03-1.6-7.84-19.8-43.04-19.8-43.04s-3.4 39.49-1.8 47.33c1.2 5.88 5.1 10.3 13 8.74z"/>
<path id="path13" d="m1075.8 654.95l-2.3 4.64-2.6 5.94-1.6 2.83-1.3 2.58-1 2.07-1.3 1.29-3.1-2.58-3.3-2.32-3.6-1.81-3.9-1.55-4.1-1.03-4.2-1.03-4.1-0.77-4.4-0.52-9-0.77-9-0.26-8.8-0.52-8.25-1.03-4.65-0.77-4.38-1.04-2.32-0.77-2.33-0.77-2.06-1.04-1.8-1.03-2.84-1.8-2.84-2.07-3.1-2.32-2.83-2.58-5.94-5.67-5.93-5.68-5.93-5.41-5.42-4.91-2.58-1.8-2.58-1.81-2.32-1.03-2.32-0.77-4.39-1.04-3.87-1.28-3.87-1.29-3.86-1.81-3.36-1.55-3.35-2.06-3.1-2.07-2.83-2.06-3.1-2.32-2.58-2.32-2.58-2.58-2.58-2.58-4.9-5.42-4.64-5.67-9.29-12.13-9.8-12.38-5.68-5.93-5.93-5.94-3.35-3.09-3.36-2.84-3.61-2.58-3.87-2.84-0.77 0.26-0.78 0.78-0.77 1.03-0.52 1.29-0.77 2.32-0.26 1.03-1.8-0.77-1.55-0.78-1.81-0.77-1.54-0.52h-3.36l-1.8 0.52-1.81 0.77 1.81 2.32 2.32 3.1 2.32 3.61 2.06 3.87 2.07 4.13 1.55 3.87 0.51 2.06 0.52 1.55 0.25 1.8v1.55h-2.83-11.09l2.06 3.1 2.32 3.09 2.58 3.1 2.84 2.84 2.84 2.83 2.83 2.84 2.84 2.32 2.58 1.81-2.84 0.26-3.87 0.26-3.87 0.51-2.83 0.26 2.32 2.06 2.84 2.07 3.09 2.32 3.35 2.32 3.36 2.06 3.35 1.81 3.1 1.03 2.83 0.77 1.29 0.26 1.04 0.26 0.77 0.26 0.52 0.51 0.25 0.26v1.03l-0.25 0.52-0.52 1.55-0.26 1.55-0.26 1.03v0.77l0.26 1.29 0.26 1.03 0.52 0.52 0.77 0.51 1.03 0.52 1.29 0.26 1.29 0.51 1.29 0.52 1.29 0.52 1.03 0.77 0.26 0.26v0.51l-0.26 0.26-1.03 0.78-1.03 0.77-1.03 1.03-1.04 1.29v1.03l-0.25 1.04 0.25 1.28 0.26 1.55 4.39 1.55 4.64 1.55 2.06 0.51 2.07 0.78 1.55 0.77 1.29 0.78-8.52 6.7 2.33 2.07 2.83 1.54 3.61 1.81 3.62 1.29 4.12 1.29 3.87 0.77 3.36 0.78h3.09l-2.84 2.06-3.61 2.32-3.87 2.07-2.83 2.06 2.57 1.81 3.62 1.8 4.12 2.06 4.9 2.33 11.35 4.9 12.39 4.9 12.89 4.64 12.64 4.13 5.68 1.8 5.16 1.29 4.64 1.29 4.13 0.78-8.26-0.78-7.73-1.03-7.74-1.29-7.23-1.54-7.22-2.07-6.96-2.06-6.71-2.32-6.45-2.58-12.64-5.16-11.87-5.16-5.67-2.32-5.68-2.32-5.41-2.07-5.42-2.06 1.29-0.78 1.55-0.51 2.06-0.78 2.32-0.51 4.9-1.55 4.39-1.55-7.74-1.29-10.58-2.06-5.15-1.55-4.39-1.29-1.81-0.77-1.54-0.78-1.29-0.77-0.78-0.77v-0.26l0.26-0.26 0.78-0.26 0.77-0.51 2.06-0.78 2.84-0.77 6.19-1.81 5.16-1.8-12.64-2.32-9.8-1.55-3.61-0.78-2.84-1.03-1.03-0.51-1.03-0.78-0.78-0.51-0.51-0.78 0.77-0.51 2.32-0.52 3.35-0.52 3.87-0.77 4.13-0.51 3.61-1.04 1.81-0.51 1.55-0.52 1.03-0.77 1.03-0.78-2.06-0.77-2.07-0.77-2.58-0.52-2.58-0.52-5.93-0.77-5.93-0.77-3.1-0.78-2.84-0.51-2.83-1.04-2.84-1.03-2.58-1.29-2.32-1.8-2.07-1.81-1.54-2.32 0.51-0.26 1.03-0.26h1.29l2.07 0.26 4.64 0.26 5.16 0.26 5.68 0.51h7.22l2.06-0.25 1.55-0.52 1.03-0.52-6.19-2.58-8.25-3.61-4.65-2.32-4.9-2.32-4.9-2.58-4.9-2.58-4.64-2.84-4.39-3.09-4.13-3.1-3.61-3.09-1.55-1.81-1.54-1.55-1.04-1.54-1.03-1.81-1.03-1.55-0.52-1.8-0.25-1.55-0.26-1.81h1.8l2.07 0.26 2.06 0.77 2.07 0.78 4.12 2.58 4.65 2.58 2.06 1.29 2.32 1.29 2.32 1.03 2.07 0.77 2.32 0.52 2.06 0.26h2.32l2.07-0.78-6.19-4.64-6.97-5.93-8-6.97-7.99-7.74-8-8.25-7.48-8.26-3.35-4.38-3.36-4.13-2.83-4.13-2.58-3.87-0.52-1.03v-1.8l0.26-0.78 0.26-0.77 0.77-0.52 0.77-0.77 0.78-0.52 1.03-0.25 1.03-0.26h2.07l1.29 0.26 1.03 0.25 1.03 0.78 0.77 0.77 4.65 4.64 5.41 5.42 5.68 5.93 6.19 5.94 6.19 5.41 6.19 5.16 3.1 2.07 2.83 1.8 3.1 1.55 2.84 1.03-2.07-1.29-2.32-2.32-3.09-3.09-3.36-3.87-7.48-9.03-8.25-10.58-4.13-5.67-3.87-5.68-3.61-5.67-3.61-5.42-3.1-5.16-2.58-4.64-1.8-4.39-1.55-3.61-0.26-1.29v-2.06l0.26-0.78 0.52-0.77 0.51-0.77 0.52-0.52 0.77-0.52 1.81-0.51 1.54-0.52h3.62l1.03 0.26 0.77 0.26 1.03 0.51 0.78 0.78 2.06 1.8 2.06 2.58 4.65 5.94 4.9 7.48 5.67 7.99 5.94 8.26 3.09 3.87 3.1 3.87 3.35 3.35 3.61 3.1-4.38-8.52-4.9-9.8-2.58-5.42-2.32-5.41-2.33-5.68-2.06-5.67-1.81-5.94-1.8-5.67-1.29-5.68-1.03-5.67-0.52-5.42-0.26-5.16 0.26-2.58 0.26-2.32 0.26-2.32 0.51-2.32 0.52-0.78 0.26-0.77 0.77-0.77 0.52-0.52 1.8-0.77 1.81-0.52h1.8l1.55 0.26 0.78 0.26 0.51 0.25 0.26 0.52 0.26 0.77 2.58 8.26 2.32 8.77 2.32 9.03 2.32 8.77 2.32 8.77 3.1 8.25 1.55 3.87 1.8 3.87 2.07 3.61 2.32 3.61-1.55-7.48-1.03-6.7-1.03-6.19-0.52-5.68-0.52-4.9-0.25-4.39 0.25-3.61 0.26-3.09 0.52-2.58 0.77-2.07 0.52-0.77 0.51-0.77 0.52-0.52 0.77-0.52 0.78-0.25h2.32l2.06 0.77 2.07 1.03 1.8 8.26 1.81 7.99 2.06 7.48 2.32 7.23 2.58 7.22 2.84 7.22 3.1 7.48 3.61 7.48 2.58 4.91 2.58 4.9 2.83 4.9 2.84 4.9 3.1 4.64 3.09 4.65 3.36 4.64 3.35 4.64 6.19 7.74 6.45 7.22 6.71 7.23 6.96 6.7 7.22 6.71 7.48 6.19 7.74 5.93 8 5.68 5.42 3.61 5.67 3.35 5.94 3.36 5.67 3.09 9.03 4.39 8.77 4.13 9.29 3.61 9.33 3.35 8.7 2.84 9.1 2.32 9.2 2.06 9.1 1.81 9.5 1.29 9.3 1.03 9.5 0.77 9.6 0.52" fill-rule="evenodd"/>
<path id="path17" d="m1099.3 733.37l4.3 0.52 2.1 0.77 0.5 0.26v0.26h-0.5l-0.5 0.25-4.1 0.78h-3.4l-10.8-0.78-13.2-0.25-14.2-0.26-14.7 0.26-6.9 0.25-7 0.52-6.2 0.52-5.9 0.51-4.9 0.78-4.4 1.03-1.6 0.51-1.5 0.52-1.3 0.51-1 0.78 0.5-2.58 1-2.58-1.8 0.52-1.8 0.51-1.5 0.78-1.59 0.77-1.28 0.77-1.04 1.03-0.77 1.29-0.26 1.29-0.77-1.8-0.52-1.55-0.26-1.8-0.25-1.55 0.25-1.29 0.26-1.55 0.26-1.29 0.77-1.29 0.52-1.03 1.03-1.29 1.03-1.03 1.03-1.03 2.89-1.81 3-1.81c1.7 1.02 3.6 1.75 5.5 2.33 1.6 0.21 3.5-0.05 5.4-0.52 3.1 2.77 7.3 2.43 10-0.52 0.5-0.53 1.1-1.36 1.3-2.06 0.5-1.49 0.4-3.44 0-5.16l3.1-0.26 3.6-0.51 3.9-1.04 4.1-1.03 4.2-0.77 3.8-1.03 3.6-0.52 3.1-0.26-1.3 1.04-3 2.32-3.7 2.83-2.5 1.81 3.3 0.77 2.9 0.52-2.1 2.32-2.1 2.32-2 2.32-1.6 2.07 2.1 0.77 2 0.52 2.4 0.51h4.6l2.3-0.51 2.4-0.52 1.8-1.03 2 1.03 2.1 0.78 2 0.51 2.1 0.52 4.7 0.51 4.9 0.52h19.6" fill-rule="evenodd"/>
<path id="path21" d="m1020.1 718.67l0.7 0.25 0.8 0.26 0.3 0.78 0.2 0.77-0.2 0.77-0.3 0.78-0.8 0.51h-1.8l-0.5-0.51-0.5-0.78-0.3-0.77 0.3-0.77 0.5-0.78 0.5-0.26 1.1-0.25" fill-rule="evenodd"/>
<path id="path25" d="m1019.8 719.7l0.5 0.26 0.3 0.51-0.3 0.52-0.5 0.26-0.5-0.26-0.3-0.52 0.3-0.51 0.5-0.26" fill-rule="evenodd"/>
<path id="path3166" d="m1020 723.25c-1.3 0-2.4-1.06-2.4-2.36 0-1.31 1.1-2.37 2.4-2.37s2.3 1.06 2.3 2.37c0 1.3-1 2.36-2.3 2.36z"/>
<path id="path29" d="m1212.2 746.01l-1.8 0.77-1.8 0.26-1.5 0.26-1.3-0.26-1.3-0.26-1.3-0.51-1-0.52-1.3-0.77-2.1-1.55-2-1.55-1.1-0.77-1.3-0.52-1-0.26h-1.3l-2.3 4.91-3.1 6.19-1 1.54-1.1 1.29-1 0.78-1 0.77-1.3 0.52h-1.3l-1.3-0.52-1.5-0.77-0.6-0.78-0.5-0.77-0.5-1.03-0.5-1.29-0.5-2.32-0.3-1.55-1.5 1.29-1.6 1.81-1.3 2.06-1.5 2.32-1.8 2.32-1.8 1.81-1.1 1.03-1.2 0.77-1.3 0.52-1.6 0.52h-0.8l-1.2 0.25-1.3-0.25-1.1-0.52-3.1-3.61-3.3-3.61-2.3 3.61-2.6 3.09-1.3 1.29-1.3 1.29-1.3 1.03-1.3 0.78-1 0.51-1.3 0.26h-1.3l-1-0.26-1-0.51-0.8-0.78-1.1-1.28-0.5-1.55-0.5-1.55-1-2.58-0.3-1.29-0.5-1.03-0.5-0.52h-0.5l-7 11.35-1 1.03-1.8 0.78-2.1 0.51-2.1 0.52h-2.3l-1.8-0.52-0.5-0.25-0.8-0.78-0.2-0.51v-1.04l1-11.35-0.8 0.26-1 0.52-1 0.51-1.1 1.04-2 2.32-2.3 2.58-2.4 2.83-2.8 2.33-1.3 1.03-1.3 1.03-1.5 0.77-1.3 0.26-1.8 0.26-1.3-0.26-0.5-0.26-0.6-0.51-0.2-0.78v-0.77l0.2-3.35 0.6-3.36 0.2-1.8-0.2-1.55-0.3-1.55-1-1.8-1.6 2.32-2.6 3.35-3.1 3.36-3.3 3.35-1.8 1.29-1.8 1.29-1.6 0.51-1.3 0.52-0.5-0.26h-0.7l-0.6-0.51-0.2-0.26-0.5-0.78-0.3-0.77v-1.03l-0.2-1.29 0.2-9.8-6.4 4.38-7.8 4.9-1.8 0.78-2 1.03-1.9 0.51-2 0.52-1.8 0.52h-1.8l-1.8-0.26-1.6-0.52 0.8-2.06 0.8-1.81 0.7-1.8 1.1-1.55 1-1.55 1-1.55 1.3-1.29 1.3-1.29 2.9-2.06 3.3-2.06 3.4-1.55 3.8-1.29 3.9-1.03 4.4-0.78 4.4-0.77 4.4-0.52 9.5-0.51 9.8-0.26h19.6l4.9-0.26 4.7-0.26 4.6-0.25 4.4-0.52 4.4-0.77 3.8-0.78 3.9-1.03 3.6-1.55 3.4-1.54 2.8-2.07 2.8-2.06 2.4-2.84-2.6-5.16 2-0.26 2.1-0.51 2.1-1.03 1.8-1.29 0.8-0.52 0.7-0.77 0.5-1.04 0.6-0.77 0.2-1.03v-1.81l-0.5-1.03 4.4-0.77 4.6-0.52 4.9-0.26h5.2l10.6 0.52 10.8 0.77 11.1 1.29 10.8 1.03 10.6 1.04 9.8 0.51v3.61l-0.3 1.55-0.5 1.55-0.5 1.55-0.5 1.29-0.8 1.03-1 1.29-1.8 1.8-2.3 1.55-2.4 1.03-2.5 0.52-2.9 0.52-2.8-0.26-2.6-0.26-2.8-0.77-2.6-1.29-2.6-1.29-2-1.81-2.1-2.06v4.38l-0.8 5.68-0.5 2.83-0.8 2.58-0.5 1.04-0.8 0.77-0.5 0.77-0.8 0.52m-207.4-24.25l6 2.58 1.5-1.29 2.1-1.55 2.3-1.29 2.1-1.29 7.7-3.09 6.7-3.1 3.4-1.29 2.8-1.54 2.9-1.55 2.3-1.55 5.9-3.87 5.9-3.87 5.7-3.61 5.2-3.61 3.8-3.1 3.1-2.83 3.4-3.1 3.6-3.35 1.3-1.29 1.5-1.03 1.8-1.04 2.1-1.03 4.4-2.06 4.4-1.55 5.9-1.55 6.5-1.55 6.7-1.29 7.5-1.28 9-1.04 9-1.29 9.3-1.03 9-1.55 3.1-0.51 2.9-0.78 3.1-0.77 3-0.77 3.1-3.87 4.9-5.42 3.4-3.35 3.9-3.1 4.4-3.35 5.1-3.36 7.7-4.64 8.3-4.13 8.5-4.38 8.3-3.87 7.7-3.87 7.2-3.61 6-3.1 4.6-3.09 1.3-3.87 1.8-3.87 2.3-3.87 2.9-3.87 3.1-4.13 3.8-4.13 4.2-4.64 5.1-4.9 4.7-4.13 4.9-4.12 2.5-1.81 2.6-1.81 2.9-1.54 2.8-1.55 2.8-1.29 2.9-1.03 3.1-0.78 2.8-0.77 3.1-0.26 2.8-0.26 3.1 0.26 2.9 0.52-0.3 3.09-0.8 3.1-1 3.09-1.3 3.36-1.8 3.35-2.3 3.35-2.9 3.62-3.3 3.61 2.6-0.26 2.3-0.52 1.8-0.51 1.8-0.78 1.6-0.51 1.8-0.52 2.3-0.26 2.6-0.25 0.2 1.8v1.81l-0.2 1.8-0.6 1.55-0.7 1.55-1.1 1.55-1 1.29-1.3 1.29-5.4 5.15-5.4 4.91 3.1 0.25 3.3 1.04 3.4 1.03 2.6 0.51-3.1 2.33-3.6 2.32-3.7 2.32-4.1 2.32-4.1 2.32-4.1 2.58-4.2 2.84-3.8 3.09 1.8 0.26 2.3 1.03 1 0.26 1.1 0.52 0.7 0.26 0.8-0.26-5.1 2.84-6.5 3.09-3.1 1.55-2.6 1.55-1.3 0.77-0.7 0.77-0.6 0.78-0.5 0.77 0.3 1.03 0.5 0.78 1 0.77 0.8 0.78-0.2 1.03-0.6 0.77-1 0.77-1 0.78-2.3 1.29-3.1 1.29-3.1 1.03-2.9 1.03-2 1.03-1.6 0.78 5.2 5.16-1.8 1.8-1.8 1.29-1.6 0.78-1.8 0.77-3.6 0.52h-4.9l0.5 2.32 0.8 2.32 0.5 2.58 0.5 2.58-4.4 3.35-5.4 3.87-5.9 3.87-6.7 3.87-3.9 2.06-3.9 1.81-4.1 1.55-4.4 1.54-4.6 1.55-4.9 1.03-5.2 1.04-5.4 0.77 9.5 0.26h8.3l7.7-0.78 7-0.77 6.5-1.29 5.6-1.55 5.7-2.06 5.4-2.06 7.2-3.36 7-3.87 6.7-4.12 7-4.13-4.1-2.07-4.2-1.29-2-0.77-2.1-1.03-2.3-1.03-2.3-1.29 2-1.55 2.3-1.03 2.9-1.03 3.1-0.78 6.2-1.29 6.4-0.77 5.7-0.78 5.1-0.51 2.1-0.52 1.8-0.51 1-0.52 0.8-0.77-0.2-0.26-0.6-0.52-0.7-0.25-1.1-0.52-2.8-0.52-3.6-0.51-3.6-0.26-3.6-0.52-3.1-0.77-2.1-0.77 7-1.55 6.9-1.55 6.2-1.29 5.2-1.29 4.4-1.29 3.8-1.55 1.9-0.77 1.2-0.77 1.3-0.78 1.1-1.03-0.3-0.26-0.5-0.51-1-0.26-1.3-0.26-3.4-0.26h-3.9l-4.1-0.26-3.9-0.25-3.3-0.52-2.1-0.52 1.8-0.77 1.8-0.77 6.2-1.81 5.4-1.55 5-1.29 4.6-1.54 4.9-1.55 4.9-2.07 2.3-1.29 2.1-1.29 0.8-0.77 0.7-1.03 0.8-0.78 0.3-0.77-0.3-0.77-0.8-0.52-0.7-0.26h-7.3l-3.3 0.26h-4.7l-1.3-0.26-1-0.51-1-0.52 10.3-6.71 9.5-6.19 8.6-5.41 7.4-5.16 3.1-2.58 2.9-2.58 2.3-2.58 2.1-2.58 1.5-2.84 1.3-2.84 0.8-3.09v-3.36h-1.8l-1.8 0.26-2.1 0.78-2.1 0.77-4.1 2.58-4.4 2.58-2.3 1.29-2.1 1.29-2.3 1.03-2.3 0.78-2.1 0.51-2 0.26h-2.4l-2-0.77 6.2-4.65 6.9-5.93 8-6.97 8-7.73 8-8.26 7.5-8.25 3.4-4.39 3.3-4.13 2.8-4.12 2.6-3.87 0.5-1.04 0.3-0.77-0.3-1.03-0.2-0.77-0.3-0.78-0.7-0.51-0.8-0.78-0.8-0.26-1-0.51-1.1-0.26h-2l-1.1 0.26-1.2 0.26-0.8 0.77-1 0.77-4.7 4.65-5.4 5.41-5.7 5.94-6.2 5.93-6.2 5.42-6.2 5.16-3.1 2.06-2.8 1.81-3.1 1.54-2.6 1.29 1.8-1.54 2.4-2.33 3.1-3.09 3.3-3.87 7.5-9.03 8.2-10.58 4.2-5.67 3.8-5.68 3.9-5.41 3.4-5.68 3.1-5.16 2.5-4.64 2.1-4.39 1.3-3.61 0.3-1.29v-2.06l-0.3-0.77-0.5-0.78-0.5-0.77-0.6-0.52-0.7-0.26-1.6-0.77-1.8-0.52h-3.6l-1 0.26-0.8 0.26-1 0.52-0.8 0.77-2.1 1.81-2 2.57-4.7 5.94-4.9 7.48-5.4 8-5.9 8.25-3.4 3.87-3.1 3.87-3.3 3.35-3.6 3.1 4.6-8.52 4.6-9.8 2.6-5.41 2.3-5.42 2.4-5.68 2-5.67 1.8-5.93 1.8-5.68 1.3-5.67 1.1-5.68 0.5-5.42 0.2-5.16-0.2-2.58-0.3-2.32-0.2-2.32-0.5-2.32-0.3-0.77-0.5-0.78-0.8-0.77-0.5-0.52-1.8-0.77-1.8-0.52h-1.8l-1.6 0.26-0.5 0.26-0.8 0.26-0.2 0.51-0.3 0.78-2.6 8.51-2.3 8.51-2.3 9.03-2.3 8.77-2.4 8.77-3 8.26-1.6 4.12-1.8 3.61-2.1 3.87-2.3 3.36 1.6-7.48 1-6.71 1-6.19 0.5-5.68 0.6-4.9 0.2-4.38-0.2-3.61-0.3-3.1-0.5-2.58-0.8-2.06-0.5-0.78-0.5-0.77-0.5-0.52-0.8-0.26-0.8-0.25-0.8-0.26h-0.7l-0.8 0.26-2.1 0.51-2 1.03-1.8 8.26-1.8 8-2.1 7.48-2.3 7.22-2.6 7.22-2.8 7.23-3.1 7.48-3.7 7.48-2.5 4.9-2.6 4.9-2.9 4.9-2.8 4.9-3.1 4.64-3.1 4.65-3.3 4.64-3.4 4.64-6.2 7.74-6.4 7.23-6.7 7.22-7 6.71-7.2 6.7-7.5 6.19-7.7 5.94-8 5.67-5.5 3.61-5.6 3.61-5.7 3.36-5.7 3.35-9 4.13-9 4.13-9.3 3.35-9.3 3.35-7.7 2.32-7.8 2.33-8 1.8-8 1.81-8 1.29-8.2 1.03-8 1.03-8.3 0.52-0.8 0.25-0.7 0.26-1.6 0.78-1.8 1.29-2.6 2.32-3.3 3.09-4.1 4.13-4.9 5.42-4.7 5.42-5.4 5.93-2.8 2.84-2.9 2.83-3.3 2.58-3.4 2.58-2.6 1.81-2.5 1.55-2.9 1.29-2.8 1.29-6.2 2.58-6.2 2.32-6.2 2.32-5.4 2.06-2.3 1.03-2.4 1.29-2 1.04-1.6 1.03-1.5 1.54-1.3 1.29-0.8 1.29-0.5 1.29-0.3 1.81v1.03" fill-rule="evenodd"/>
<path id="path3938" d="m1019.8 721.47c-0.5 0-1-0.43-1-0.97 0-0.53 0.5-0.96 1-0.96s1 0.43 1 0.96c0 0.54-0.5 0.97-1 0.97z" stroke="#00afca" stroke-width=".38127"/>
</g>
<path id="use2877" fill="#fec50c" d="m120 927.08s-9.61 8.07-12.87 4.02c-5.25-6.51 16.14-38.97 16.14-50.39 0-18.76-12.52-23.87-27.977-26.54-10.371-1.8-27.259 0.75-27.259 0.75 3.18 4.27 5.248 5.53 10.605 5.87-5.964 3.1-12.038 9.82-12.038 20.29 0 16.14 6.643 22.79 6.643 40.98 0 10.09-8.276 22.94-8.276 22.94 14.628-1.46 21.879-15.01 17.753-25.83 2.329-0.34 4.443 0.19 6.259 1.91 1.07-3-0.62-6.49-2.884-9.49 1.824-0.97 3.163-0.39 6.066 0.21-0.275-3.09-2.127-6.37-6.659-9.47 13.151 3.42 21.247-5.75 21.247-15.34 0-7.25-5.08-12.45-10.047-12.45-1.605 0-3.961 0.67-5.291 1.66-0.937-2-0.454-4.67 0.511-6.66-3.639 0.96-5.948 3.12-4.304 7.62-2.795 0.26-5.018 1.2-6.531 3 1.533 1.96 3.857 3.09 6.531 3-2.035 4.2 0.233 6.55 3.537 8.46 0 0-2.101-8.46 3.266-8.46 2.413 0 4.612 0.79 4.612 4.34 0 3.1-2.707 7.39-8.966 7.12-6.258-0.28-11.332-4.32-11.332-14.31 0-9.21 7.433-13.8 17.228-14.09 8.836-0.28 15.506 4.51 15.506 13.62 0 12.13-17.513 39.77-17.513 50.58 0 8.11 7.293 12.64 14.423 12.64 9.26 0 17.06-9.16 17.06-9.16l-5.44-6.82z"/>
<path id="use2885" fill="#fec50c" d="m117.98 707.86c0-20.27 18.2-30.68 32.5-30.68 19.26 0 29.52 11.52 29.52 26.59 0 8.55-1.57 13.92-5.51 22.1 0 0-31.78 66.09-44.15 91.65-1.54 3.19-2.04 6.82-2.04 12.14 0 8.22 7.97 14.93 16.33 15.14 7.61 0.19 15.91-7.1 15.91-15.41 0-10.1-5.23-14.6-10.61-14.6-6.61 0-9.25 2.72-9.25 7.37 0 3.23 1.56 4.63 3.81 4.63 5.67 0 4.08-7.63 4.08-7.63 2.82 0.61 5.14 3.49 3.81 7.09 2.06 0.46 3.99 1.54 5.51 3.27-1.52 1.48-3.26 2.62-5.51 3 1.33 4.39-0.45 6.53-4.28 7.44 0.77-1.69 0.8-3.24 0.54-4.71-6.04 1.72-15.31-1.02-15.31-11.46 0-10.36 7.2-19.09 20.68-16.91-3.21-1.53-4.84-4.67-5.17-8.18 2.45 0.95 5.17 1.09 5.17 1.09-1.57-2.78-3.76-5.18-3.67-10.64 2.5 1.14 4.82 3.24 8.03 1.91-5.03-9.9 1.15-23.51 16.87-26.73-5.76 6.74-8.57 14.03-8.57 21.28 0 23.49 6.53 27.44 6.53 43.78 0 6.83-3.52 14.21-10.48 19.23v-0.28c4.6 1.23 7.55 3.5 9.25 6.58-10.52 2.98-25.8 2.93-34.01-0.3-9.43-1.09-16.02-8.33-17.96-12-1.94-3.68-5.71-16.96 0-28.92 6.25-13.09 35.71-75.56 44.9-95.2 1.95-4.16 3.13-8.58 3.13-13.36 0-12.03-11.02-16.23-17.28-16.23-7.48 0-15.1 5.7-15.1 12.82 0 4.51 2.45 7.23 5.98 7.23 8.46 0 7.95-7.2 6.26-11.73 5.27 2.36 8.33 6.59 7.48 11.04 2.98 0.41 5.82 1.83 8.44 4.78-2.06 2.6-4.57 4.57-8.44 4.64 1.69 6.91-2.94 9.83-7.48 11.45 1.44-5.07 2.38-10.91-6.26-10.91-6.3 0-11.26-1.09-14.15-5.18-0.17 5.45-0.68 27-0.68 27-0.36 8.1 10.84 7.87 17.96 5.46-2.69 9.33-8.2 14.37-20.95 13.09 3.09 1.3 6.39 4.21 6.39 9.82 0 7.6-6.16 16.01-10.2 18.5l-2.02-79.06z"/>
<path id="use2875" fill="#fec50c" d="m122.02 707.86c0-20.27-18.2-30.68-32.496-30.68-19.266 0-29.524 11.52-29.524 26.59 0 8.55 1.566 13.92 5.507 22.1 0 0 31.781 66.09 44.153 91.65 1.54 3.19 2.04 6.82 2.04 12.14 0 8.22-7.97 14.93-16.326 15.14-7.618 0.19-15.918-7.1-15.918-15.41 0-10.1 5.236-14.6 10.612-14.6 6.616 0 9.252 2.72 9.252 7.37 0 3.23-1.563 4.63-3.81 4.63-5.674 0-4.081-7.63-4.081-7.63-2.819 0.61-5.134 3.49-3.81 7.09-2.062 0.46-3.993 1.54-5.51 3.27 1.521 1.48 3.266 2.62 5.51 3-1.329 4.39 0.447 6.53 4.286 7.44-0.775-1.69-0.802-3.24-0.544-4.71 6.043 1.72 15.309-1.02 15.309-11.46 0-10.36-7.197-19.09-20.684-16.91 3.209-1.53 4.841-4.67 5.17-8.18-2.449 0.95-5.17 1.09-5.17 1.09 1.577-2.78 3.768-5.18 3.674-10.64-2.501 1.14-4.823 3.24-8.027 1.91 5.029-9.9-1.15-23.51-16.871-26.73 5.754 6.74 8.571 14.03 8.571 21.28 0 23.49-6.53 27.44-6.53 43.78 0 6.83 3.513 14.21 10.476 19.23v-0.28c-4.603 1.23-7.55 3.5-9.245 6.58 10.515 2.98 25.798 2.93 34.006-0.3 9.43-1.09 16.02-8.33 17.96-12 1.94-3.68 5.71-16.96 0-28.92-6.25-13.09-35.712-75.56-44.898-95.2-1.948-4.16-3.129-8.58-3.129-13.36 0-12.03 11.02-16.23 17.279-16.23 7.483 0 15.098 5.7 15.098 12.82 0 4.51-2.45 7.23-5.983 7.23-8.458 0-7.945-7.2-6.258-11.73-5.264 2.36-8.324 6.59-7.483 11.04-2.981 0.41-5.818 1.83-8.436 4.78 2.06 2.6 4.573 4.57 8.436 4.64-1.687 6.91 2.94 9.83 7.483 11.45-1.437-5.07-2.38-10.91 6.258-10.91 6.303 0 11.263-1.09 14.153-5.18 0.17 5.45 0.68 27 0.68 27 0.36 8.1-10.84 7.87-17.962 5.46 2.687 9.33 8.202 14.37 20.952 13.09-3.09 1.3-6.39 4.21-6.39 9.82 0 7.6 6.16 16.01 10.2 18.5l2.02-79.06z"/>
<path id="use2879" fill="#fec50c" d="m120 927.08s9.61 8.07 12.87 4.02c5.25-6.51-16.14-38.97-16.14-50.39 0-18.76 12.52-23.87 27.98-26.54 10.37-1.8 27.26 0.75 27.26 0.75-3.18 4.27-5.25 5.53-10.61 5.87 5.97 3.1 12.04 9.82 12.04 20.29 0 16.14-6.64 22.79-6.64 40.98 0 10.09 8.27 22.94 8.27 22.94-14.63-1.46-21.88-15.01-17.75-25.83-2.33-0.34-4.44 0.19-6.26 1.91-1.07-3 0.62-6.49 2.88-9.49-1.82-0.97-3.16-0.39-6.06 0.21 0.27-3.09 2.13-6.37 6.66-9.47-13.15 3.42-21.25-5.75-21.25-15.34 0-7.25 5.08-12.45 10.05-12.45 1.6 0 3.96 0.67 5.29 1.66 0.94-2 0.45-4.67-0.51-6.66 3.64 0.96 5.95 3.12 4.3 7.62 2.8 0.26 5.02 1.2 6.53 3-1.53 1.96-3.86 3.09-6.53 3 2.04 4.2-0.23 6.55-3.54 8.46 0 0 2.11-8.46-3.26-8.46-2.42 0-4.61 0.79-4.61 4.34 0 3.1 2.7 7.39 8.96 7.12 6.26-0.28 11.33-4.32 11.33-14.31 0-9.21-7.43-13.8-17.22-14.09-8.84-0.28-15.51 4.51-15.51 13.62 0 12.13 17.51 39.77 17.51 50.58 0 8.11-7.29 12.64-14.42 12.64-9.26 0-17.06-9.16-17.06-9.16l5.44-6.82z"/>
<path id="use2881" fill="#fec50c" d="m117.98 352.94c0-20.27 18.2-30.68 32.5-30.68 19.26 0 29.52 11.52 29.52 26.59 0 8.55-1.57 13.92-5.51 22.1 0 0-31.78 66.09-44.15 91.65-1.54 3.19-2.04 6.82-2.04 12.14 0 8.22 7.97 14.93 16.33 15.14 7.61 0.19 15.91-7.1 15.91-15.41 0-10.1-5.23-14.6-10.61-14.6-6.61 0-9.25 2.72-9.25 7.37 0 3.23 1.56 4.63 3.81 4.63 5.67 0 4.08-7.63 4.08-7.63 2.82 0.61 5.14 3.49 3.81 7.09 2.06 0.46 3.99 1.54 5.51 3.27-1.52 1.48-3.26 2.62-5.51 3 1.33 4.39-0.45 6.53-4.28 7.44 0.77-1.69 0.8-3.24 0.54-4.71-6.04 1.72-15.31-1.02-15.31-11.46 0-10.36 7.2-19.09 20.68-16.91-3.21-1.53-4.84-4.67-5.17-8.18 2.45 0.95 5.17 1.09 5.17 1.09-1.57-2.78-3.76-5.18-3.67-10.64 2.5 1.14 4.82 3.24 8.03 1.91-5.03-9.9 1.15-23.51 16.87-26.73-5.76 6.74-8.57 14.03-8.57 21.28 0 23.49 6.53 27.44 6.53 43.78 0 6.83-3.52 14.21-10.48 19.23v-0.28c4.6 1.23 7.55 3.5 9.25 6.58-10.52 2.98-25.8 2.93-34.01-0.3-9.43-1.09-16.02-8.33-17.96-12-1.94-3.68-5.71-16.96 0-28.92 6.25-13.09 35.71-75.56 44.9-95.2 1.95-4.16 3.13-8.58 3.13-13.36 0-12.03-11.02-16.23-17.28-16.23-7.48 0-15.1 5.7-15.1 12.82 0 4.51 2.45 7.23 5.98 7.23 8.46 0 7.95-7.2 6.26-11.73 5.27 2.36 8.33 6.59 7.48 11.04 2.98 0.41 5.82 1.83 8.44 4.78-2.06 2.6-4.57 4.57-8.44 4.64 1.69 6.91-2.94 9.83-7.48 11.45 1.44-5.07 2.38-10.91-6.26-10.91-6.3 0-11.26-1.09-14.15-5.18-0.17 5.45-0.68 27-0.68 27-0.36 8.1 10.84 7.87 17.96 5.46-2.69 9.33-8.2 14.37-20.95 13.09 3.09 1.3 6.39 4.21 6.39 9.82 0 7.6-6.16 16.01-10.2 18.5l-2.02-79.06z"/>
<path id="use2871" fill="#fec50c" d="m122.02 352.94c0-20.27-18.2-30.68-32.496-30.68-19.266 0-29.524 11.52-29.524 26.59 0 8.55 1.566 13.92 5.507 22.1 0 0 31.781 66.09 44.153 91.65 1.54 3.19 2.04 6.82 2.04 12.14 0 8.22-7.97 14.93-16.326 15.14-7.618 0.19-15.918-7.1-15.918-15.41 0-10.1 5.236-14.6 10.612-14.6 6.616 0 9.252 2.72 9.252 7.37 0 3.23-1.563 4.63-3.81 4.63-5.674 0-4.081-7.63-4.081-7.63-2.819 0.61-5.134 3.49-3.81 7.09-2.062 0.46-3.993 1.54-5.51 3.27 1.521 1.48 3.266 2.62 5.51 3-1.329 4.39 0.447 6.53 4.286 7.44-0.775-1.69-0.802-3.24-0.544-4.71 6.043 1.72 15.309-1.02 15.309-11.46 0-10.36-7.197-19.09-20.684-16.91 3.209-1.53 4.841-4.67 5.17-8.18-2.449 0.95-5.17 1.09-5.17 1.09 1.577-2.78 3.768-5.18 3.674-10.64-2.501 1.14-4.823 3.24-8.027 1.91 5.029-9.9-1.15-23.51-16.871-26.73 5.754 6.74 8.571 14.03 8.571 21.28 0 23.49-6.53 27.44-6.53 43.78 0 6.83 3.513 14.21 10.476 19.23v-0.28c-4.603 1.23-7.55 3.5-9.245 6.58 10.515 2.98 25.798 2.93 34.006-0.3 9.43-1.09 16.02-8.33 17.96-12 1.94-3.68 5.71-16.96 0-28.92-6.25-13.09-35.712-75.56-44.898-95.2-1.948-4.16-3.129-8.58-3.129-13.36 0-12.03 11.02-16.23 17.279-16.23 7.483 0 15.098 5.7 15.098 12.82 0 4.51-2.45 7.23-5.983 7.23-8.458 0-7.945-7.2-6.258-11.73-5.264 2.36-8.324 6.59-7.483 11.04-2.981 0.41-5.818 1.83-8.436 4.78 2.06 2.6 4.573 4.57 8.436 4.64-1.687 6.91 2.94 9.83 7.483 11.45-1.437-5.07-2.38-10.91 6.258-10.91 6.303 0 11.263-1.09 14.153-5.18 0.17 5.45 0.68 27 0.68 27 0.36 8.1-10.84 7.87-17.962 5.46 2.687 9.33 8.202 14.37 20.952 13.09-3.09 1.3-6.39 4.21-6.39 9.82 0 7.6 6.16 16.01 10.2 18.5l2.02-79.06z"/>
<path id="use4303" fill="#fec50c" d="m122.02 292.14c0 20.27-18.2 30.68-32.496 30.68-19.266 0-29.524-11.52-29.524-26.59 0-8.55 1.566-13.92 5.507-22.1 0 0 31.781-66.09 44.153-91.65 1.54-3.19 2.04-6.82 2.04-12.14 0-8.22-7.97-14.93-16.326-15.14-7.618-0.19-15.918 7.1-15.918 15.41 0 10.1 5.236 14.6 10.612 14.6 6.616 0 9.252-2.72 9.252-7.37 0-3.23-1.563-4.63-3.81-4.63-5.674 0-4.081 7.63-4.081 7.63-2.819-0.61-5.134-3.49-3.81-7.09-2.062-0.46-3.993-1.54-5.51-3.27 1.521-1.48 3.266-2.62 5.51-3-1.329-4.39 0.447-6.53 4.286-7.44-0.775 1.69-0.802 3.24-0.544 4.71 6.043-1.72 15.309 1.02 15.309 11.46 0 10.36-7.197 19.09-20.684 16.91 3.209 1.53 4.841 4.67 5.17 8.18-2.449-0.95-5.17-1.09-5.17-1.09 1.577 2.78 3.768 5.18 3.674 10.64-2.501-1.14-4.823-3.24-8.027-1.91 5.029 9.9-1.15 23.51-16.871 26.73 5.754-6.74 8.571-14.03 8.571-21.28 0-23.49-6.53-27.44-6.53-43.78 0-6.83 3.513-14.21 10.476-19.23v0.28c-4.603-1.23-7.55-3.5-9.245-6.58 10.515-2.98 25.798-2.93 34.006 0.3 9.43 1.09 16.02 8.33 17.96 12 1.94 3.68 5.71 16.96 0 28.92-6.25 13.09-35.712 75.56-44.898 95.2-1.948 4.16-3.129 8.58-3.129 13.36 0 12.03 11.02 16.23 17.279 16.23 7.483 0 15.098-5.7 15.098-12.82 0-4.51-2.45-7.23-5.983-7.23-8.458 0-7.945 7.2-6.258 11.73-5.264-2.36-8.324-6.59-7.483-11.04-2.981-0.41-5.818-1.83-8.436-4.78 2.06-2.6 4.573-4.57 8.436-4.64-1.687-6.91 2.94-9.83 7.483-11.45-1.437 5.07-2.38 10.91 6.258 10.91 6.303 0 11.263 1.09 14.153 5.18 0.17-5.45 0.68-27 0.68-27 0.36-8.1-10.84-7.87-17.962-5.46 2.687-9.33 8.202-14.37 20.952-13.09-3.09-1.3-6.39-4.21-6.39-9.82 0-7.6 6.16-16.01 10.2-18.5l2.02 79.06z"/>
<path id="use2873" fill="#fec50c" d="m122.02 647.06c0 20.27-18.2 30.68-32.496 30.68-19.266 0-29.524-11.52-29.524-26.59 0-8.55 1.566-13.92 5.507-22.1 0 0 31.781-66.09 44.153-91.65 1.54-3.19 2.04-6.82 2.04-12.14 0-8.22-7.97-14.93-16.326-15.14-7.618-0.19-15.918 7.1-15.918 15.41 0 10.1 5.236 14.6 10.612 14.6 6.616 0 9.252-2.72 9.252-7.37 0-3.23-1.563-4.63-3.81-4.63-5.674 0-4.081 7.63-4.081 7.63-2.819-0.61-5.134-3.49-3.81-7.09-2.062-0.46-3.993-1.54-5.51-3.27 1.521-1.48 3.266-2.62 5.51-3-1.329-4.39 0.447-6.53 4.286-7.44-0.775 1.69-0.802 3.24-0.544 4.71 6.043-1.72 15.309 1.02 15.309 11.46 0 10.36-7.197 19.09-20.684 16.91 3.209 1.53 4.841 4.67 5.17 8.18-2.449-0.95-5.17-1.09-5.17-1.09 1.577 2.78 3.768 5.18 3.674 10.64-2.501-1.14-4.823-3.24-8.027-1.91 5.029 9.9-1.15 23.51-16.871 26.73 5.754-6.74 8.571-14.03 8.571-21.28 0-23.49-6.53-27.44-6.53-43.78 0-6.83 3.513-14.21 10.476-19.23v0.28c-4.603-1.23-7.55-3.5-9.245-6.58 10.515-2.98 25.798-2.93 34.006 0.3 9.43 1.09 16.02 8.33 17.96 12 1.94 3.68 5.71 16.96 0 28.92-6.25 13.09-35.712 75.56-44.898 95.2-1.948 4.16-3.129 8.58-3.129 13.36 0 12.03 11.02 16.23 17.279 16.23 7.483 0 15.098-5.7 15.098-12.82 0-4.51-2.45-7.23-5.983-7.23-8.458 0-7.945 7.2-6.258 11.73-5.264-2.36-8.324-6.59-7.483-11.04-2.981-0.41-5.818-1.83-8.436-4.78 2.06-2.6 4.573-4.57 8.436-4.64-1.687-6.91 2.94-9.83 7.483-11.45-1.437 5.07-2.38 10.91 6.258 10.91 6.303 0 11.263 1.09 14.153 5.18 0.17-5.45 0.68-27 0.68-27 0.36-8.1-10.84-7.87-17.962-5.46 2.687-9.33 8.202-14.37 20.952-13.09-3.09-1.3-6.39-4.21-6.39-9.82 0-7.6 6.16-16.01 10.2-18.5l2.02 79.06z"/>
<path id="use2883" fill="#fec50c" d="m117.98 647.06c0 20.27 18.2 30.68 32.5 30.68 19.26 0 29.52-11.52 29.52-26.59 0-8.55-1.57-13.92-5.51-22.1 0 0-31.78-66.09-44.15-91.65-1.54-3.19-2.04-6.82-2.04-12.14 0-8.22 7.97-14.93 16.33-15.14 7.61-0.19 15.91 7.1 15.91 15.41 0 10.1-5.23 14.6-10.61 14.6-6.61 0-9.25-2.72-9.25-7.37 0-3.23 1.56-4.63 3.81-4.63 5.67 0 4.08 7.63 4.08 7.63 2.82-0.61 5.14-3.49 3.81-7.09 2.06-0.46 3.99-1.54 5.51-3.27-1.52-1.48-3.26-2.62-5.51-3 1.33-4.39-0.45-6.53-4.28-7.44 0.77 1.69 0.8 3.24 0.54 4.71-6.04-1.72-15.31 1.02-15.31 11.46 0 10.36 7.2 19.09 20.68 16.91-3.21 1.53-4.84 4.67-5.17 8.18 2.45-0.95 5.17-1.09 5.17-1.09-1.57 2.78-3.76 5.18-3.67 10.64 2.5-1.14 4.82-3.24 8.03-1.91-5.03 9.9 1.15 23.51 16.87 26.73-5.76-6.74-8.57-14.03-8.57-21.28 0-23.49 6.53-27.44 6.53-43.78 0-6.83-3.52-14.21-10.48-19.23v0.28c4.6-1.23 7.55-3.5 9.25-6.58-10.52-2.98-25.8-2.93-34.01 0.3-9.43 1.09-16.02 8.33-17.96 12-1.94 3.68-5.71 16.96 0 28.92 6.25 13.09 35.71 75.56 44.9 95.2 1.95 4.16 3.13 8.58 3.13 13.36 0 12.03-11.02 16.23-17.28 16.23-7.48 0-15.1-5.7-15.1-12.82 0-4.51 2.45-7.23 5.98-7.23 8.46 0 7.95 7.2 6.26 11.73 5.27-2.36 8.33-6.59 7.48-11.04 2.98-0.41 5.82-1.83 8.44-4.78-2.06-2.6-4.57-4.57-8.44-4.64 1.69-6.91-2.94-9.83-7.48-11.45 1.44 5.07 2.38 10.91-6.26 10.91-6.3 0-11.26 1.09-14.15 5.18-0.17-5.45-0.68-27-0.68-27-0.36-8.1 10.84-7.87 17.96-5.46-2.69-9.33-8.2-14.37-20.95-13.09 3.09-1.3 6.39-4.21 6.39-9.82 0-7.6-6.16-16.01-10.2-18.5l-2.02 79.06z"/>
<path id="use3180" fill="#fec50c" d="m120 72.923s9.61-8.076 12.87-4.025c5.25 6.515-16.14 38.972-16.14 50.392 0 18.76 12.52 23.87 27.98 26.54 10.37 1.8 27.26-0.75 27.26-0.75-3.18-4.27-5.25-5.53-10.61-5.87 5.97-3.1 12.04-9.82 12.04-20.29 0-16.14-6.64-22.786-6.64-40.98 0-10.092 8.27-22.94 8.27-22.94-14.63 1.464-21.88 15.009-17.75 25.833-2.33 0.336-4.44-0.188-6.26-1.909-1.07 3.001 0.62 6.483 2.88 9.484-1.82 0.974-3.16 0.39-6.06-0.21 0.27 3.092 2.13 6.376 6.66 9.468-13.15-3.415-21.25 5.754-21.25 15.344 0 7.25 5.08 12.45 10.05 12.45 1.6 0 3.96-0.67 5.29-1.66 0.94 2 0.45 4.67-0.51 6.66 3.64-0.96 5.95-3.12 4.3-7.62 2.8-0.26 5.02-1.2 6.53-3-1.53-1.96-3.86-3.09-6.53-3 2.04-4.2-0.23-6.55-3.54-8.46 0 0 2.11 8.46-3.26 8.46-2.42 0-4.61-0.79-4.61-4.34 0-3.1 2.7-7.39 8.96-7.12 6.26 0.28 11.33 4.32 11.33 14.31 0 9.21-7.43 13.8-17.22 14.09-8.84 0.28-15.51-4.51-15.51-13.62 0-12.13 17.51-39.773 17.51-50.582 0-8.109-7.29-12.636-14.42-12.636-9.26 0-17.06 9.162-17.06 9.162l5.44 6.819z"/>
<path id="use4321" fill="#fec50c" d="m120 72.923s-9.61-8.076-12.87-4.025c-5.25 6.515 16.14 38.972 16.14 50.392 0 18.76-12.52 23.87-27.977 26.54-10.371 1.8-27.259-0.75-27.259-0.75 3.18-4.27 5.248-5.53 10.605-5.87-5.964-3.1-12.038-9.82-12.038-20.29 0-16.14 6.643-22.786 6.643-40.98 0-10.092-8.276-22.94-8.276-22.94 14.628 1.464 21.879 15.009 17.753 25.833 2.329 0.336 4.443-0.188 6.259-1.909 1.07 3.001-0.62 6.483-2.884 9.484 1.824 0.974 3.163 0.39 6.066-0.21-0.275 3.092-2.127 6.376-6.659 9.468 13.151-3.415 21.247 5.754 21.247 15.344 0 7.25-5.08 12.45-10.047 12.45-1.605 0-3.961-0.67-5.291-1.66-0.937 2-0.454 4.67 0.511 6.66-3.639-0.96-5.948-3.12-4.304-7.62-2.795-0.26-5.018-1.2-6.531-3 1.533-1.96 3.857-3.09 6.531-3-2.035-4.2 0.233-6.55 3.537-8.46 0 0-2.101 8.46 3.266 8.46 2.413 0 4.612-0.79 4.612-4.34 0-3.1-2.707-7.39-8.966-7.12-6.258 0.28-11.332 4.32-11.332 14.31 0 9.21 7.433 13.8 17.228 14.09 8.836 0.28 15.506-4.51 15.506-13.62 0-12.13-17.513-39.773-17.513-50.582 0-8.109 7.293-12.636 14.423-12.636 9.26 0 17.06 9.162 17.06 9.162l-5.44 6.819z"/>
</svg>
